<?xml version="1.0" encoding="utf-8"?>
<!-- Generator: Adobe Illustrator 26.4.1, SVG Export Plug-In . SVG Version: 6.00 Build 0)  -->
<svg version="1.1" xmlns="http://www.w3.org/2000/svg" xmlns:xlink="http://www.w3.org/1999/xlink" x="0px" y="0px"
	 viewBox="0 0 2000 2000" style="enable-background:new 0 0 2000 2000;" xml:space="preserve">
<style type="text/css">
	.st0{fill:#FFFFFF;stroke:#000000;stroke-miterlimit:10;}
	.st1{fill:none;stroke:#000000;stroke-width:10;stroke-miterlimit:10;}
	.st2{opacity:0.7;}
	.st3{opacity:0.7;fill:#AF3034;}
	.st4{fill:#AF3034;}
	.st5{opacity:0.7;fill:#F1EDF5;}
	.st6{fill:#F1EDF5;}
	.st7{opacity:0.1;fill:#AF3034;}
	.st8{fill:#282628;}
	.st9{display:none;}
</style>
<g id="Layer_1">
	<rect x="0" y="0" class="st9" width="1999.98" height="1999.98"/>
	<g>
		<circle class="st2" cx="269.23" cy="269.23" r="269.23"/>
		<circle class="st2" cx="269.23" cy="1730.76" r="269.23"/>
		<g>
			<circle cx="1730.76" cy="269.23" r="269.23"/>
		</g>
		<g>
			<circle cx="269.23" cy="1730.77" r="269.23"/>
		</g>
		<g>
			<circle cx="269.23" cy="269.23" r="269.23"/>
		</g>
		<g>
			<circle cx="269.23" cy="1730.76" r="269.23"/>
		</g>
		<path d="M538.46,1730.77c0,0,0-223.09,230.77-453.86l507.69-507.67c230.94-230.94,453.84-230.78,453.84-230.78l-269.23-269.23
			c0,0,0,223.09-230.77,453.86l-507.69,507.67c-27.48,27.48-54.85,51.69-81.74,73.01l0-0.01c-34.99,26.06-78.08,41.13-125.25,41.13
			c-102.96,0-188.68-73.82-207.12-171.42c-4.53-36.35-7.11-75.32-7.11-117.19l0.02-112.57c0-326.6,157.73-484.11,157.73-484.11
			l-380.75,0c0,0,157.75,157.75,157.75,484.11l-0.02,112.57c0,326.6-157.73,484.11-157.73,484.11"/>
		<g>
			<g>
				<circle cx="1730.77" cy="1730.76" r="269.23"/>
			</g>
			<path d="M1139.24,1368.19c-4.26,4.22-6.91,10.08-6.91,16.56c0,12.87,10.64,25.59,23.3,23.3
				c324.42-58.7,305.71,322.72,305.71,322.72l269.43-269.23c0,0-381.42,18.71-322.72-305.71c2.29-12.66-10.43-23.3-23.3-23.3
				c-6.48,0-12.33,2.64-16.56,6.91L1139.24,1368.19z"/>
		</g>
	</g>
</g>
<g id="Layer_2">
</g>
</svg>
