<svg xmlns="http://www.w3.org/2000/svg" viewBox="0 0 27 33" class="logo-link__svg" aria-hidden="true"><path d="M11.884 32.057c-2.764 0-5.252-1.045-7.392-3.1-1.182-1.14-1.97-2.621-2.482-4.67-.315-1.264-.445-2.51-.535-3.565-.113-1.37-.236-2.7-.343-3.824l-.012-.145c-.095-.994-.197-2.027-.315-3.032-.118-.977-.253-1.976-.388-2.936L.27 9.7C.242 9.5.208 9.291.18 9.09.107 8.612.034 8.14.006 7.658c-.085-1.449.765-2.7 2.161-3.195a3.11 3.11 0 011.565-.129 3.218 3.218 0 011.51-2.526c1.114-.702 2.493-.64 3.596.157.682.494 1.093 1.196 1.256 2.145l.777 4.423.079.433.855-4.245c.135-.668.27-1.353.4-2.032C12.503 1.106 13.809 0 15.375 0c1.615.006 2.972 1.207 3.163 2.79.006.034.006.068.011.096a3.067 3.067 0 011.526.14c1.57.567 2.42 2.167 2.072 3.896l-.316 1.55a337.098 337.098 0 00-1.148 5.771c.54-.69 1.283-1.14 2.1-1.263.833-.124 1.677.1 2.386.629a3.24 3.24 0 011.177 3.385c-.32 1.23-.878 2.335-1.419 3.408-.14.275-.275.55-.41.83-1.188 2.448-2.399 4.812-4.172 6.844-1.677 1.926-3.468 3.105-5.472 3.604a12.786 12.786 0 01-2.989.377zM3.181 6.18c-.13 0-.26.023-.383.067-.602.214-.935.685-.895 1.292.022.398.09.82.152 1.224.04.241.073.46.101.679l.147 1.084c.135.97.27 1.976.394 2.964.123 1.027.225 2.071.32 3.076l.012.146c.107 1.129.236 2.47.349 3.846.079.982.202 2.133.484 3.262.422 1.69 1.041 2.88 1.953 3.761 2.404 2.313 5.286 3.06 8.591 2.24 1.61-.404 3.08-1.386 4.498-3.009 1.621-1.858 2.764-4.098 3.89-6.423.14-.286.281-.572.428-.853.518-1.027 1.002-1.998 1.278-3.031a1.333 1.333 0 00-.473-1.382c-.304-.224-.636-.32-.963-.27-.326.052-.636.242-.878.551l-2.443 4.587a.956.956 0 01-1.796-.54c.146-1.442.377-2.98.749-4.984.388-2.123.827-4.267 1.255-6.339l.326-1.589c.164-.802-.168-1.482-.85-1.729-.427-.157-.962-.022-1.317.326a.951.951 0 01-1.098.168.942.942 0 01-.512-.982c.011-.062.017-.13.023-.191.017-.14.04-.292.062-.432.045-.259.084-.5.061-.68a1.286 1.286 0 00-1.266-1.122c-.653 0-1.171.46-1.3 1.14-.13.684-.27 1.375-.406 2.048l-1.852 9.196a.957.957 0 01-.934.764h-.012a.957.957 0 01-.929-.786l-.608-3.442-.349-1.965c-.259-1.476-.523-2.953-.776-4.43-.102-.572-.31-.79-.501-.931-.462-.337-1.008-.37-1.459-.084-.461.292-.698.83-.596 1.38.067.36.13.725.186 1.09a.959.959 0 01-1.672.786 1.298 1.298 0 00-.991-.483z"></path></svg>