<?xml version="1.0" encoding="UTF-8"?><svg id="Layer_1" xmlns="http://www.w3.org/2000/svg" viewBox="0 0 87 34"><defs><style>.cls-1{fill:#fff;}</style></defs><path class="cls-1" d="M70,34H17C7.63,34,0,26.37,0,17S7.63,0,17,0h53c9.37,0,17,7.63,17,17s-7.63,17-17,17ZM17,4c-7.17,0-13,5.83-13,13s5.83,13,13,13h53c7.17,0,13-5.83,13-13s-5.83-13-13-13H17Z"/><g><path class="cls-1" d="M16.5,8.3h14.34v3.72h-8.98v2.77h8.33v3.55h-8.33v3.43h9.24v3.94h-14.6V8.3Z"/><path class="cls-1" d="M46.06,18.58l4.69,1.42c-.31,1.32-.81,2.43-1.49,3.31s-1.52,1.56-2.52,2.01-2.28,.68-3.83,.68c-1.88,0-3.42-.28-4.61-.82-1.19-.55-2.22-1.52-3.09-2.9-.87-1.39-1.3-3.16-1.3-5.32,0-2.88,.76-5.09,2.29-6.64,1.52-1.55,3.68-2.32,6.47-2.32,2.18,0,3.9,.44,5.14,1.33s2.18,2.25,2.78,4.08l-4.72,1.06c-.17-.53-.34-.92-.52-1.16-.3-.41-.67-.73-1.1-.95s-.92-.33-1.45-.33c-1.21,0-2.14,.49-2.79,1.47-.49,.73-.73,1.87-.73,3.43,0,1.93,.29,3.25,.87,3.97,.58,.72,1.4,1.07,2.46,1.07s1.8-.29,2.32-.87,.9-1.42,1.14-2.52Z"/><path class="cls-1" d="M53.94,8.3h5l6.52,9.63V8.3h5.04V25.7h-5.04l-6.48-9.56v9.56h-5.03V8.3Z"/></g></svg>